<?xml version="1.0" standalone="no"?>
<!DOCTYPE svg PUBLIC "-//W3C//DTD SVG 20010904//EN"
 "http://www.w3.org/TR/2001/REC-SVG-20010904/DTD/svg10.dtd">
<svg version="1.0" xmlns="http://www.w3.org/2000/svg"
 width="500.000000pt" height="500.000000pt" viewBox="0 0 500.000000 500.000000"
 preserveAspectRatio="xMidYMid meet">

<g transform="translate(0.000000,500.000000) scale(0.100000,-0.100000)"
fill="#000000" stroke="none">
<path d="M0 2500 l0 -2500 2500 0 2500 0 0 2500 0 2500 -2500 0 -2500 0 0
-2500z m2887 1389 c380 -52 634 -342 634 -724 0 -287 -137 -517 -382 -645
-119 -62 -210 -83 -359 -83 -224 0 -380 63 -531 213 -144 143 -209 303 -209
515 0 133 20 221 76 335 39 80 61 109 133 180 172 171 392 243 638 209z m-797
-349 c-6 -11 -23 -22 -38 -26 -75 -16 -141 -38 -192 -64 -207 -104 -343 -301
-369 -533 -33 -291 107 -559 361 -692 104 -55 202 -77 343 -77 175 0 290 34
408 119 45 33 47 37 47 84 0 43 3 49 20 49 19 0 21 -5 18 -62 l-3 -62 -77 -52
c-183 -125 -448 -155 -678 -78 -232 78 -402 261 -467 504 -23 89 -23 281 0
370 55 206 191 375 372 464 70 35 197 74 243 75 20 1 21 -2 12 -19z m890
-1275 c0 -122 -2 -145 -15 -145 -13 0 -15 23 -15 145 0 122 2 145 15 145 13 0
15 -23 15 -145z m-1345 -397 c28 -12 35 -35 8 -23 -71 31 -133 1 -133 -64 0
-52 34 -83 86 -79 37 3 39 5 42 41 4 49 22 48 22 -3 0 -29 -5 -42 -19 -50 -64
-34 -155 15 -155 82 0 81 75 130 149 96z m205 -94 c0 -77 -3 -94 -15 -94 -12
0 -15 17 -15 93 0 52 3 97 6 100 17 17 24 -12 24 -99z m290 91 c91 -47 53
-185 -50 -185 -102 0 -141 136 -52 184 35 20 66 20 102 1z m288 9 c39 -11 24
-24 -21 -18 -32 5 -46 2 -56 -10 -20 -24 -9 -39 50 -61 44 -17 55 -26 57 -47
2 -14 -4 -33 -13 -42 -27 -27 -125 -16 -125 15 0 6 7 6 20 -1 12 -6 38 -10 58
-8 32 3 37 6 37 28 0 20 -7 26 -44 37 -54 16 -71 29 -71 59 0 40 50 63 108 48z
m302 -3 c0 -6 -15 -11 -32 -13 l-33 -3 -3 -87 c-4 -116 -22 -114 -22 2 l0 90
-36 0 c-21 0 -33 4 -29 10 8 13 155 13 155 1z m293 -31 c58 -65 12 -160 -78
-160 -85 0 -134 90 -84 154 44 55 115 58 162 6z m304 17 c23 -23 21 -76 -4
-97 l-21 -17 25 -31 c19 -24 21 -32 9 -32 -8 0 -23 14 -33 30 -14 25 -24 30
-55 30 -36 0 -38 -2 -38 -30 0 -16 -4 -30 -10 -30 -6 0 -10 40 -10 101 l0 101
60 -4 c38 -3 67 -10 77 -21z m293 13 c0 -5 -25 -10 -55 -10 l-55 0 0 -35 0
-35 50 0 c28 0 50 -4 50 -10 0 -5 -22 -10 -50 -10 l-50 0 0 -35 0 -35 60 0
c33 0 60 -4 60 -10 0 -6 -30 -10 -70 -10 l-70 0 0 100 0 100 65 0 c37 0 65 -4
65 -10z m-2255 -421 c0 -7 -8 -15 -17 -17 -18 -3 -25 18 -11 32 10 10 28 1 28
-15z m515 -1 c0 -11 -8 -49 -25 -124 -4 -18 -12 -22 -47 -22 -23 -1 -48 4 -55
10 -14 11 -17 46 -7 73 9 23 51 37 73 25 16 -8 20 -5 25 20 5 29 36 44 36 18z
m440 -5 c-1 -10 -6 -45 -13 -78 l-13 -60 -43 -3 c-50 -4 -71 10 -71 48 0 36
44 74 77 65 18 -4 24 0 29 20 7 28 34 34 34 8z m907 -5 c-3 -13 -10 -48 -17
-79 l-11 -56 -44 -1 c-37 -1 -48 3 -60 22 -30 45 16 104 70 90 20 -5 25 -3 25
13 0 23 8 33 28 33 10 0 13 -7 9 -22z m-1947 -3 c0 -9 -9 -15 -24 -15 -22 0
-26 -6 -37 -60 -9 -49 -15 -60 -31 -60 -13 0 -18 5 -15 14 3 7 9 34 12 60 7
42 6 46 -14 46 -12 0 -21 6 -21 15 0 12 14 15 65 15 51 0 65 -3 65 -15z m1462
-2 c10 -9 18 -24 18 -34 0 -25 -47 -59 -81 -59 -22 0 -29 -5 -29 -20 0 -13 -7
-20 -20 -20 -25 0 -25 -5 5 128 5 18 12 22 47 22 25 0 49 -7 60 -17z m908 -8
c0 -8 8 -15 18 -15 15 0 14 -3 -4 -18 -26 -21 -38 -62 -18 -62 8 0 14 -7 14
-16 0 -11 -8 -14 -27 -12 -26 3 -28 6 -26 46 1 23 -3 42 -8 42 -15 0 24 49 39
50 6 0 12 -7 12 -15z m-2299 -20 c0 -6 -3 -31 -6 -57 -6 -39 -11 -48 -27 -48
-14 0 -18 5 -14 18 2 9 8 33 11 52 4 19 9 39 12 43 6 11 25 4 24 -8z m147 -1
c12 -8 22 -24 22 -35 0 -16 -7 -19 -45 -19 -25 0 -45 -4 -45 -10 0 -5 16 -10
36 -10 24 0 34 -4 32 -12 -6 -17 -66 -22 -84 -7 -28 23 -12 88 26 102 25 9 35
8 58 -9z m183 -5 c5 -8 7 -27 4 -43 -3 -16 -5 -35 -5 -42 0 -8 -9 -14 -19 -14
-17 0 -19 6 -18 43 1 30 -2 42 -12 42 -16 0 -27 -18 -36 -57 -3 -17 -12 -28
-21 -28 -14 0 -15 8 -9 46 3 26 9 52 12 60 6 17 92 12 104 -7z m369 10 c0 -4
-5 -31 -11 -59 l-11 -50 -44 0 c-35 0 -47 5 -59 24 -18 27 -8 68 20 84 20 11
105 12 105 1z m408 -5 c12 -8 22 -24 22 -35 0 -16 -7 -19 -45 -19 -25 0 -45
-4 -45 -10 0 -5 16 -10 36 -10 24 0 34 -4 32 -12 -6 -17 -66 -22 -84 -7 -28
23 -12 88 26 102 25 9 35 8 58 -9z m422 2 c0 -5 -11 -19 -25 -32 -14 -13 -25
-34 -25 -49 0 -19 -5 -25 -21 -25 -15 0 -19 5 -15 18 2 9 8 33 11 52 4 19 9
38 11 41 5 10 64 5 64 -5z m138 -2 c46 -32 17 -104 -43 -104 -38 0 -55 16 -55
50 0 30 8 43 35 58 27 15 37 15 63 -4z m288 -30 c-5 -43 -4 -45 16 -42 17 2
25 14 34 43 6 22 16 40 22 40 14 0 15 -7 7 -68 l-7 -48 -52 3 c-45 3 -51 6
-54 27 -6 41 8 91 25 91 13 0 15 -8 9 -46z m225 36 c29 -16 23 -33 -9 -25 -33
7 -58 -15 -48 -41 5 -12 14 -15 35 -11 34 7 45 -1 30 -20 -14 -16 -71 -17 -87
-1 -13 13 -16 57 -4 74 8 12 43 33 55 34 5 0 17 -5 28 -10z m287 -6 c45 -32
12 -104 -48 -104 -61 0 -75 87 -18 110 33 13 41 12 66 -6z m146 10 c26 -10 18
-24 -14 -24 -34 0 -41 -17 -9 -22 31 -4 46 -32 29 -53 -9 -11 -26 -15 -54 -13
-42 3 -53 22 -13 24 48 2 51 5 20 19 -63 27 -23 94 41 69z"/>
<path d="M2675 3849 c-164 -25 -277 -81 -391 -194 -91 -89 -140 -169 -176
-285 -19 -63 -23 -96 -23 -210 1 -121 4 -143 29 -215 41 -118 80 -181 170
-270 138 -137 293 -198 501 -197 282 1 506 136 626 377 48 97 69 190 69 310 0
120 -21 213 -69 310 -113 227 -324 363 -588 379 -48 2 -115 0 -148 -5z m-273
-308 c42 -11 100 -32 130 -46 63 -32 158 -101 158 -116 0 -24 -32 -18 -76 16
-26 20 -69 48 -97 61 -58 30 -185 64 -237 64 -43 0 -54 8 -39 27 16 18 73 16
161 -6z m578 -711 c0 -251 -2 -290 -15 -290 -13 0 -15 39 -15 290 0 251 2 290
15 290 13 0 15 -39 15 -290z m-290 -160 c0 -82 -2 -150 -4 -150 -2 0 -11 3
-20 6 -14 5 -16 28 -16 150 0 137 1 144 20 144 19 0 20 -7 20 -150z"/>
<path d="M2025 1835 c-53 -52 -18 -135 56 -135 45 0 79 34 79 79 0 42 -38 81
-80 81 -19 0 -40 -9 -55 -25z"/>
<path d="M2879 1831 c-33 -33 -35 -50 -14 -90 15 -31 33 -41 70 -41 13 0 31 3
40 6 18 7 45 55 45 79 0 26 -55 75 -85 75 -16 0 -38 -12 -56 -29z"/>
<path d="M3200 1810 l0 -50 36 0 c51 0 74 15 74 50 0 35 -23 50 -74 50 l-36 0
0 -50z"/>
<path d="M1770 1376 c-18 -22 -5 -48 22 -44 17 2 23 10 23 28 0 29 -26 38 -45
16z"/>
<path d="M2210 1370 c-14 -26 -1 -44 26 -38 13 2 19 12 19 28 0 32 -30 38 -45
10z"/>
<path d="M3122 1378 c-21 -21 -14 -48 12 -48 28 0 42 26 25 46 -14 17 -22 17
-37 2z"/>
<path d="M2657 1414 c-4 -4 -7 -16 -7 -26 0 -15 6 -19 28 -16 19 2 27 9 27 23
0 20 -33 33 -48 19z"/>
<path d="M1430 1380 c0 -5 12 -10 26 -10 14 0 23 4 19 10 -3 6 -15 10 -26 10
-10 0 -19 -4 -19 -10z"/>
<path d="M1952 1378 c-21 -21 -14 -48 12 -48 28 0 42 26 25 46 -14 17 -22 17
-37 2z"/>
<path d="M2390 1380 c0 -5 12 -10 26 -10 14 0 23 4 19 10 -3 6 -15 10 -26 10
-10 0 -19 -4 -19 -10z"/>
<path d="M2950 1375 c-16 -20 -6 -45 19 -45 20 0 37 32 26 50 -9 15 -31 12
-45 -5z"/>
<path d="M3752 1378 c-21 -21 -14 -48 12 -48 28 0 42 26 25 46 -14 17 -22 17
-37 2z"/>
</g>
</svg>
