<?xml version="1.0" standalone="no"?>
<!DOCTYPE svg PUBLIC "-//W3C//DTD SVG 20010904//EN"
 "http://www.w3.org/TR/2001/REC-SVG-20010904/DTD/svg10.dtd">
<svg version="1.0" xmlns="http://www.w3.org/2000/svg"
 width="500.000000pt" height="500.000000pt" viewBox="0 0 500.000000 500.000000"
 preserveAspectRatio="xMidYMid meet">
<metadata>
Created by potrace 1.16, written by Peter Selinger 2001-2019
</metadata>
<g transform="translate(0.000000,500.000000) scale(0.100000,-0.100000)"
fill="#000000" stroke="none">
<path d="M2250 4273 c-224 -24 -542 -139 -742 -268 -184 -119 -373 -298 -501
-476 -145 -200 -269 -500 -311 -749 -133 -789 269 -1572 988 -1925 610 -299
1336 -230 1879 179 355 267 596 651 688 1096 21 102 24 142 24 350 0 206 -3
248 -23 345 -140 672 -629 1204 -1279 1389 -168 49 -308 66 -506 64 -100 0
-198 -3 -217 -5z m1654 -1265 c124 -342 124 -722 1 -1068 -65 -181 -202 -399
-338 -537 -80 -82 -95 -66 -16 17 120 128 216 270 283 417 98 217 136 395 136
633 0 217 -33 385 -115 593 -5 11 -2 17 8 17 9 0 24 -27 41 -72z m-2784 58 c0
-3 -11 -35 -25 -73 -192 -533 -74 -1126 309 -1549 43 -47 62 -75 55 -80 -15
-9 -111 96 -197 215 -116 161 -220 406 -257 608 -23 124 -30 337 -15 463 19
172 91 420 120 420 5 0 10 -2 10 -4z m923 -100 c25 -7 60 -24 77 -36 30 -21
30 -23 14 -41 -15 -17 -19 -17 -33 -5 -67 58 -184 67 -270 21 -116 -64 -156
-212 -85 -322 63 -97 206 -137 309 -85 42 21 45 27 45 120 0 81 0 82 25 82 25
0 25 0 25 -99 0 -95 -1 -101 -26 -120 -76 -60 -228 -67 -323 -15 -66 35 -107
84 -126 148 -48 161 28 309 185 357 41 12 134 10 183 -5z m437 -261 l0 -275
-27 0 -28 0 3 275 3 275 24 0 25 0 0 -275z m626 260 c197 -58 251 -333 92
-470 -58 -49 -124 -69 -212 -63 -80 5 -136 29 -186 80 -115 115 -98 321 33
415 74 53 176 67 273 38z m-560 -829 c52 -52 44 -128 -18 -166 -40 -24 -69
-25 -113 -4 -48 22 -71 75 -56 125 16 52 53 79 108 79 38 0 50 -5 79 -34z
m267 23 c30 -16 37 -28 37 -66 0 -21 -8 -37 -24 -50 -21 -17 -22 -21 -9 -39
29 -38 35 -60 9 -32 -14 16 -29 34 -33 42 -6 11 -19 13 -50 9 -40 -5 -42 -8
-46 -42 -2 -20 -4 15 -5 77 l-2 112 51 0 c28 0 60 -5 72 -11z"/>
<path d="M2965 2931 c-185 -32 -255 -264 -118 -393 57 -55 173 -77 248 -48 85
33 145 121 145 215 0 103 -78 205 -169 221 -20 3 -43 7 -51 9 -8 1 -33 -1 -55
-4z"/>
<path d="M2418 2145 c-46 -26 -62 -80 -36 -128 18 -35 40 -46 86 -47 58 0 92
33 92 89 0 76 -77 122 -142 86z"/>
</g>
</svg>
